<?xml version="1.0" encoding="utf-8"?>
<!-- Generator: Adobe Illustrator 19.0.0, SVG Export Plug-In . SVG Version: 6.00 Build 0)  -->
<svg version="1.1" id="Camada_1" xmlns="http://www.w3.org/2000/svg" xmlns:xlink="http://www.w3.org/1999/xlink" x="0px" y="0px"
	 viewBox="0 0 457.2 217.6" style="enable-background:new 0 0 457.2 217.6;" xml:space="preserve">
<path id="XMLID_1998_" d="M7.5,204.8c11.8,0,17.6,8.1,19.5,11.6c0.4,0.8,1.2,1.2,2.1,1.2c0.1,0,0.3,0,0.4,0c1-0.2,1.7-0.9,2-1.9
	c1.2-5.6,10.8-9.7,14.7-10.9h248c0.8,3.2,3.7,5.7,7.2,5.7c3.5,0,6.4-2.4,7.2-5.7h146.9c1,0,1.8-0.8,1.8-1.8v-77.2v0v-24.4V28.6
	c0-0.3,0.1-3.1-0.3-6.7c-0.5-4.8-1.9-11.1-5.5-14.4c-2.1-1.9-4.7-2.7-7.8-2.2c-6.6,1-8.9,4.6-9.7,6.7c-1.3,3.4-0.5,7.5,2,10.5
	c2.1,2.5,5.1,3.6,8.1,3c4.7-0.9,6.8-3.5,8-5c0.1-0.1,0.1-0.1,0.1-0.2c0.3,0.4,0.6,0.9,1.2,1.9c0.3,2.6,0.3,5,0.2,6.4v7.8
	c-0.3,1.6-6.1,31.7-22,40.7c-0.5,0.3-0.9,0.9-0.9,1.5c0,0.6,0.3,1.2,0.7,1.5c9.8,7.3,20.4,16.7,22,20.4c-3,1.9-10.3,7.4-9.1,14.8
	c0.1,0.7,0.3,1.3,0.5,1.9c1.3,4,4.4,5.6,6.6,6.7c1.7,0.9,2.3,1.3,2.3,1.9v51c-0.1,1-3.2,24.3-21.2,24.3h-29.9
	c13.3-5.9,34.8-20.8,37.7-56c0.8-9.3-0.5-17.9-3.6-25.7c-3.2-8.1-8.6-15.3-15.8-21.3c-8.9-7.4-20.4-12.6-33-15.4
	c-0.3-3.2-2.5-5.7-5.3-5.7c-2.2,0-4.1,1.6-4.9,4c-0.1,0-0.1,0-0.2,0c-0.1,0-0.1-0.1-0.2-0.1s-0.1,0-0.2,0
	c-12.3-1.4-25.2-0.5-37.4,2.9c-19.2,5.4-37.7,15.2-57.3,25.6c-26,13.8-52.9,28.1-82.1,31.3c-15.6,1.7-28.4,1.6-38-0.1
	c-3-0.5-5.6-1.2-8-2.1c-3-2.6-4.5-4.7-4.6-6.2c-0.1-1.2,0.7-2.1,2.1-3.6c2.3-2.5,5.5-6,2.5-12.4c-1.7-3.7-6.3-5.5-10.8-4.2
	c-4.9,1.3-7.8,5.4-7.3,10.5c0.5,5.7,3,10.5,7.4,14.1c2.4,2,5.4,3.6,9,5c0.1,0.1,0.3,0.1,0.4,0.1c2.6,1,5.6,1.7,8.9,2.3
	c10.1,1.8,23.1,1.9,38.9,0.1c29.9-3.2,57.1-17.7,83.4-31.7c19.4-10.3,37.7-20,56.6-25.3c4.5-1.2,9-2.1,13.6-2.6
	c-27.9,6.6-59.7,35-88.1,60.2c-31.8,28.4-86.9,30.6-87.5,30.6v0H97.4c0,0-2-0.1-4.7-0.8c-2.5-2.2-2.9-3-2.9-3
	c0.1-0.2,0.9-0.7,1.4-1.1c2.1-1.4,5.6-3.7,7-9.6c0.9-3.7-0.5-7.7-3.8-10.5c-3.3-2.9-7.7-3.9-11.2-2.6c-2.6,1-6,3.6-7,10.7
	c-0.7,5,0.4,9.2,3.2,12.6c5.9,7.1,17.3,7.8,17.9,7.8h0.1h81.2h0h99.9c0.9,0,1.7-0.7,1.7-1.6c0.1-0.9-0.5-1.7-1.4-2
	c0,0-3.1-0.7-4.9-3.5c-1.4-2.3-1.7-5.5-0.7-9.5c1.5-6,8.1-7.8,13.2-7.6c5.4,0.3,11.2,3,11.9,7.6c1.4,9.5-5.1,12.9-5.4,13.1
	c-0.7,0.4-1.1,1.2-0.9,2c0.2,0.8,0.9,1.4,1.7,1.4h39.8c0.8,0,1.5-0.5,1.7-1.2c0.3-0.8,0-1.6-0.7-2c-0.2-0.2-23.5-16.9-17.8-48.8
	c4.4-24.1,35.2-41.7,60.2-42.5c0.1,0,0.1,0,0.2,0c0.4,3,2.6,5.4,5.2,5.4c2.1,0,3.9-1.5,4.8-3.6c11.9,2.7,22.8,7.6,31.2,14.6
	c13.4,11.1,19.7,26.3,18.2,43.9c-4,47.5-42.3,55.7-45.2,56.3h-8c7.5-3.4,18-9.5,26.4-18.4c9.8-10.5,14.4-22.4,13.6-35.3
	c-1.1-18-11-31.9-27.1-37.9c-14.7-5.5-31-2.8-40.3,6.7c-9.8,9.9-14.5,21.2-13.2,31.7c1.1,9.3,6.7,17.3,16.3,23.3
	c11.1,6.9,26.7,0.6,34.8-9.2c6.2-7.6,7-15.7,1.9-22c0-0.1-0.1-0.2-0.2-0.3c-0.2-0.2-0.4-0.5-0.6-0.7c-7.2-7.8-13.6-7.9-17.6-6.7
	c-5.2,1.6-9.1,6.5-9.6,10c-0.5,3.5,1,7.4,3.8,9.7c2.9,2.4,6.6,2.9,10.6,1.5c4.6-1.6,6.5-5.8,7.8-8.9c0.5-1.1,1.3-3,1.8-3.1
	c0.1,0,0.5,0,1.3,0.7c5.5,6.9,0.5,14.4-2,17.4c-7.1,8.7-21,14.2-30.1,8.5c-8.6-5.3-13.6-12.4-14.6-20.7c-1.1-9.4,3.2-19.6,12.3-28.7
	c8.3-8.4,23.3-10.8,36.5-5.8c14.7,5.5,23.8,18.2,24.8,34.8c2.4,37.1-43.6,52.8-45.9,53.5h-65.5c-0.8-3.2-3.7-5.6-7.2-5.6
	c-3.5,0-6.4,2.4-7.2,5.6H48.7c-6.9,0-16.7-9.2-17.9-12c-0.4-0.9-1.2-1.4-2.1-1.4c-1,0-1.8,0.5-2.2,1.4c-4.2,8.8-19.2,12.1-19.3,12.1
	c-0.9,0.2-1.5,1-1.4,1.9C5.8,204.1,6.6,204.8,7.5,204.8z"/>
</svg>
